<?xml version="1.0" encoding="UTF-8" standalone="no"?>
<svg
   viewBox="0 0 64 64"
   version="1.1"
   id="svg12"
   sodipodi:docname="folder-onedrive.svg"
   inkscape:version="1.3.2 (091e20ef0f, 2023-11-25)"
   xml:space="preserve"
   xmlns:inkscape="http://www.inkscape.org/namespaces/inkscape"
   xmlns:sodipodi="http://sodipodi.sourceforge.net/DTD/sodipodi-0.dtd"
   xmlns:xlink="http://www.w3.org/1999/xlink"
   xmlns="http://www.w3.org/2000/svg"
   xmlns:svg="http://www.w3.org/2000/svg"
   xmlns:rdf="http://www.w3.org/1999/02/22-rdf-syntax-ns#"
   xmlns:cc="http://creativecommons.org/ns#"
   xmlns:dc="http://purl.org/dc/elements/1.1/"><metadata
     id="metadata16"><rdf:RDF><cc:Work
         rdf:about=""><dc:format>image/svg+xml</dc:format><dc:type
           rdf:resource="http://purl.org/dc/dcmitype/StillImage" /></cc:Work></rdf:RDF></metadata><sodipodi:namedview
     pagecolor="#ffffff"
     bordercolor="#666666"
     borderopacity="1"
     objecttolerance="10"
     gridtolerance="10"
     guidetolerance="10"
     inkscape:pageopacity="0"
     inkscape:pageshadow="2"
     inkscape:window-width="1366"
     inkscape:window-height="699"
     id="namedview14"
     showgrid="true"
     inkscape:zoom="8"
     inkscape:cx="25.75"
     inkscape:cy="28.6875"
     inkscape:window-x="0"
     inkscape:window-y="0"
     inkscape:window-maximized="1"
     inkscape:current-layer="svg12"
     inkscape:document-rotation="0"
     inkscape:lockguides="false"
     inkscape:showpageshadow="2"
     inkscape:pagecheckerboard="0"
     inkscape:deskcolor="#d1d1d1"><inkscape:grid
       type="xygrid"
       id="grid841"
       originx="0"
       originy="0"
       spacingy="1"
       spacingx="1"
       units="px"
       visible="true" /></sodipodi:namedview><defs
     id="defs3051"><style
       type="text/css"
       id="current-color-scheme">
      .ColorScheme-Text {
        color:#31363b;
      }
      .ColorScheme-Background {
        color:#eff0f1;
      }
      .ColorScheme-Highlight {
        color:#3daee9;
      }
      .ColorScheme-ViewText {
        color:#31363b;
      }
      .ColorScheme-ViewBackground {
        color:#fcfcfc;
      }
      .ColorScheme-ViewHover {
        color:#93cee9;
      }
      .ColorScheme-ViewFocus{
        color:#3daee9;
      }
      .ColorScheme-ButtonText {
        color:#31363b;
      }
      .ColorScheme-ButtonBackground {
        color:#eff0f1;
      }
      .ColorScheme-ButtonHover {
        color:#93cee9;
      }
      .ColorScheme-ButtonFocus{
        color:#3daee9;
      }
      </style><style
       type="text/css"
       id="current-color-scheme-5">
      .ColorScheme-Text {
        color:#31363b;
      }
      .ColorScheme-Background {
        color:#eff0f1;
      }
      .ColorScheme-Highlight {
        color:#3daee9;
      }
      .ColorScheme-ViewText {
        color:#31363b;
      }
      .ColorScheme-ViewBackground {
        color:#fcfcfc;
      }
      .ColorScheme-ViewHover {
        color:#93cee9;
      }
      .ColorScheme-ViewFocus{
        color:#3daee9;
      }
      .ColorScheme-ButtonText {
        color:#31363b;
      }
      .ColorScheme-ButtonBackground {
        color:#eff0f1;
      }
      .ColorScheme-ButtonHover {
        color:#93cee9;
      }
      .ColorScheme-ButtonFocus{
        color:#3daee9;
      }
      </style><linearGradient
       inkscape:collect="always"
       xlink:href="#linearGradient1"
       id="linearGradient2"
       x1="35"
       y1="65.000031"
       x2="35"
       y2="3.3709566e-05"
       gradientUnits="userSpaceOnUse"
       gradientTransform="translate(0,-3.3699567e-5)" /><linearGradient
       id="linearGradient1"
       inkscape:collect="always"><stop
         style="stop-color:#000000;stop-opacity:0.45"
         offset="0"
         id="stop1" /><stop
         style="stop-color:#f9f9f9;stop-opacity:0;"
         offset="1"
         id="stop2" /></linearGradient><style
       type="text/css"
       id="current-color-scheme-56">
      .ColorScheme-Text {
        color:#31363b;
      }
      .ColorScheme-Background {
        color:#eff0f1;
      }
      .ColorScheme-Highlight {
        color:#3daee9;
      }
      .ColorScheme-ViewText {
        color:#31363b;
      }
      .ColorScheme-ViewBackground {
        color:#fcfcfc;
      }
      .ColorScheme-ViewHover {
        color:#93cee9;
      }
      .ColorScheme-ViewFocus{
        color:#3daee9;
      }
      .ColorScheme-ButtonText {
        color:#31363b;
      }
      .ColorScheme-ButtonBackground {
        color:#eff0f1;
      }
      .ColorScheme-ButtonHover {
        color:#93cee9;
      }
      .ColorScheme-ButtonFocus{
        color:#3daee9;
      }
      </style><linearGradient
       inkscape:collect="always"
       xlink:href="#linearGradient1"
       id="linearGradient2-2"
       x1="35"
       y1="65.000031"
       x2="35"
       y2="3.3709566e-05"
       gradientUnits="userSpaceOnUse"
       gradientTransform="translate(0,-3.3699567e-5)" /><style
       type="text/css"
       id="current-color-scheme-562">
      .ColorScheme-Text {
        color:#31363b;
      }
      .ColorScheme-Background {
        color:#eff0f1;
      }
      .ColorScheme-Highlight {
        color:#3daee9;
      }
      .ColorScheme-ViewText {
        color:#31363b;
      }
      .ColorScheme-ViewBackground {
        color:#fcfcfc;
      }
      .ColorScheme-ViewHover {
        color:#93cee9;
      }
      .ColorScheme-ViewFocus{
        color:#3daee9;
      }
      .ColorScheme-ButtonText {
        color:#31363b;
      }
      .ColorScheme-ButtonBackground {
        color:#eff0f1;
      }
      .ColorScheme-ButtonHover {
        color:#93cee9;
      }
      .ColorScheme-ButtonFocus{
        color:#3daee9;
      }
      </style><linearGradient
       inkscape:collect="always"
       xlink:href="#linearGradient1"
       id="linearGradient2-9"
       x1="35"
       y1="65.000031"
       x2="35"
       y2="3.3709566e-05"
       gradientUnits="userSpaceOnUse"
       gradientTransform="translate(0,-3.3699567e-5)" /></defs><path
     style="fill:currentColor;fill-opacity:1;stroke:none"
     d="m 9,6.000034 c -3,0 -5,2 -4.992,5.197014 L 4,20 c -0.5255187,0 -1,0.363715 -1,1 l 0.008,0.197048 H 3.01 c -5e-5,0.004 -0.002,0.008 -0.002,0.01172 L 3,53 c 0,3 2,5 5,5 v 0 h 48 v 0 c 3,0 5,-2 5,-5 l 0.008,-31.791232 v -0.01172 L 61,17 c 0,-0.484427 -0.416433,-1 -1,-1 v 0 0 l 0.008,-0.802952 C 60,12 58,10 55,10 H 32 C 32,8 30,6 28,6.000034 Z"
     class="ColorScheme-Highlight"
     id="path4"
     sodipodi:nodetypes="ccccccsccccccccccccccccc" /><path
     style="fill-opacity:0.33;fill-rule:evenodd"
     d="M 9,6 C 6,6 4,8 4.0000003,11 v 9 H 22 l 4,-4 h 34 v -1 0 0 c 0,-3 -2,-5 -5,-5 L 32,9.9999657 C 32,8 30,6 28,5.9999657 Z"
     id="path6"
     sodipodi:nodetypes="ccccccccccccc" /><path
     style="fill:#737373;fill-opacity:0.2;fill-rule:evenodd;opacity:0.01"
     d="m 28,6 3,5 h 2 22 V 10 H 33 32 C 32,8 30,6 28,6 Z m -2,10 -4,4 H 4 c -0.5804871,0 -1,0.403257 -1,1 h 20 z"
     id="path8"
     sodipodi:nodetypes="cccccccccccccc" /><path
     style="fill-opacity:0.2;fill-rule:evenodd"
     d="m 26,16 -6,3 H 4 v 1 H 22 Z M 5,57 c 0,0.416776 2,1 3,1 h 2 42 3 c 2.476706,0 4,-0.558829 4,-1 H 52 10 Z"
     class="ColorScheme-Text"
     id="path10"
     sodipodi:nodetypes="ccccccccccccccc" /><path
     style="color:#3daee9;fill:url(#linearGradient2);fill-opacity:1;stroke:none"
     d="M 9,6 C 6,6 4,8 4.008,11.197014 L 4,19.999966 c -0.525519,0 -1,0.363715 -1,1 l 0.008,0.197048 H 3.01 c -5e-5,0.004 -0.002,0.008 -0.002,0.01172 L 3,52.999966 c 0,3 2,5 5,5 v 0 h 47.999996 v 0 c 3,0 5,-2 5,-5 l 0.008,-31.791232 v -0.01172 l -0.008,-4.197048 c 0,-0.484427 -0.41643,-1 -1,-1 v 0 0 l 0.008,-0.802952 c -0.008,-3.197048 -2.008,-5.1970477 -5.008,-5.1970477 h -23 C 31.999996,7.999966 29.999995,5.999966 27.999995,6 Z"
     class="ColorScheme-Highlight"
     id="path1"
     sodipodi:nodetypes="ccccccsccccccccccccccccc" /><path
     style="color:#3daee9;fill:url(#linearGradient2-2);fill-opacity:1;stroke:none"
     d="M 9,6 C 6,6 4,8 4.008,11.197014 L 4,19.999966 c -0.525519,0 -1,0.363715 -1,1 l 0.008,0.197048 H 3.01 c -5e-5,0.004 -0.002,0.008 -0.002,0.01172 L 3,52.999966 c 0,3 2,5 5,5 v 0 h 47.999996 v 0 c 3,0 5,-2 5,-5 l 0.008,-31.791232 v -0.01172 l -0.008,-4.197048 c 0,-0.484427 -0.41643,-1 -1,-1 v 0 0 l 0.008,-0.802952 c -0.008,-3.197048 -2.008,-5.1970477 -5.008,-5.1970477 h -23 C 31.999996,7.999966 29.999995,5.999966 27.999995,6 Z"
     class="ColorScheme-Highlight"
     id="path1-2"
     sodipodi:nodetypes="ccccccsccccccccccccccccc" /><path
     style="color:#3daee9;fill:url(#linearGradient2-9);fill-opacity:1;stroke:none"
     d="M 9,6 C 6,6 4,8 4.008,11.197014 L 4,19.999966 c -0.525519,0 -1,0.363715 -1,1 l 0.008,0.197048 H 3.01 c -5e-5,0.004 -0.002,0.008 -0.002,0.01172 L 3,52.999966 c 0,3 2,5 5,5 v 0 h 47.999996 v 0 c 3,0 5,-2 5,-5 l 0.008,-31.791232 v -0.01172 l -0.008,-4.197048 c 0,-0.484427 -0.41643,-1 -1,-1 v 0 0 l 0.008,-0.802952 c -0.008,-3.197048 -2.008,-5.1970477 -5.008,-5.1970477 h -23 C 31.999996,7.999966 29.999995,5.999966 27.999995,6 Z"
     class="ColorScheme-Highlight"
     id="path1-7"
     sodipodi:nodetypes="ccccccsccccccccccccccccc" /><path
     style="color:#eff0f1;fill:#ffffff;fill-opacity:1;stroke:none"
     d="m 32,28.000047 a 7,7 0 0 0 -7,7 A 7,7 0 0 0 25.08008,36.002 5,5 0 0 0 25,36 a 5,5 0 0 0 -5,5 5,5 0 0 0 5,5 H 38 A 6,6 0 0 0 44,40 6,6 0 0 0 38.931641,34.078125 7,7 0 0 0 32,28 Z m 0,1 a 6,6 0 0 1 0.599609,0.0293 6,6 0 0 1 2.78711,1.019531 6,6 0 0 1 0.002,0 6,6 0 0 1 1.310547,1.220703 6,6 0 0 1 0,0.002 6,6 0 0 1 1.214843,2.732422 6,6 0 0 1 0.08589,0.996044 5,5 0 0 1 0.996094,0.09961 5,5 0 0 1 0.482422,0.123047 5,5 0 0 1 0.002,0 5,5 0 0 1 0.466797,0.171875 5,5 0 0 1 0.002,0 5,5 0 0 1 0.447265,0.216797 5,5 0 0 1 0.0039,0.002 5,5 0 0 1 0.421875,0.259766 5,5 0 0 1 0.0039,0.002 5,5 0 0 1 0.394531,0.300781 5,5 0 0 1 0.002,0.002 5,5 0 0 1 0.363282,0.337891 5,5 0 0 1 0.002,0.002 5,5 0 0 1 0.61914,0.78125 5,5 0 0 1 0.002,0.002 5,5 0 0 1 0.246094,0.431641 5,5 0 0 1 0.002,0.002 5,5 0 0 1 0.203125,0.453125 5,5 0 0 1 0.002,0.002 5,5 0 0 1 0.15625,0.472656 5,5 0 0 1 0,0.002 5,5 0 0 1 0.109375,0.486329 5,5 0 0 1 0,0.002 5,5 0 0 1 0.06055,0.49414 5,5 0 0 1 0.0114,0.353092 5,5 0 0 1 -5,5 h -13 a 4,4 0 0 1 -4,-4 4,4 0 0 1 0.01953,-0.398438 4,4 0 0 1 3.98047,-3.601562 4,4 0 0 1 0.298828,0.01367 4,4 0 0 1 0,0.002 4,4 0 0 1 1.15625,0.261719 A 6,6 0 0 1 26.11328,36.130951 6,6 0 0 1 26.03906,35.623139 6,6 0 0 1 26.02539,35.507904 6,6 0 0 1 26,35.000047 a 6,6 0 0 1 0.0293,-0.599609 6,6 0 0 1 5.970703,-5.400391 z"
     class="ColorScheme-Background"
     id="path12" /></svg>
