<?xml version="1.0" encoding="UTF-8" standalone="no"?>
<svg
   clip-rule="evenodd"
   fill-rule="evenodd"
   stroke-linejoin="round"
   stroke-miterlimit="2"
   viewBox="0 0 48 48"
   version="1.1"
   id="svg28"
   sodipodi:docname="file-manager-blue.svg"
   inkscape:version="1.2.2 (b0a8486541, 2022-12-01)"
   xmlns:inkscape="http://www.inkscape.org/namespaces/inkscape"
   xmlns:sodipodi="http://sodipodi.sourceforge.net/DTD/sodipodi-0.dtd"
   xmlns="http://www.w3.org/2000/svg"
   xmlns:svg="http://www.w3.org/2000/svg">
  <defs
     id="defs32">
    <linearGradient
       id="a-3"
       x2="1"
       gradientTransform="matrix(0,-32.5946,29.646534,0,25.063312,40.2223)"
       gradientUnits="userSpaceOnUse">
      <stop
         stop-color="#f69310"
         offset="0"
         id="stop2" />
      <stop
         stop-color="#f3ca71"
         offset="1"
         id="stop4" />
    </linearGradient>
  </defs>
  <sodipodi:namedview
     id="namedview30"
     pagecolor="#ffffff"
     bordercolor="#000000"
     borderopacity="0.25"
     inkscape:showpageshadow="2"
     inkscape:pageopacity="0.0"
     inkscape:pagecheckerboard="0"
     inkscape:deskcolor="#d1d1d1"
     showgrid="false"
     inkscape:zoom="11.229167"
     inkscape:cx="39.495362"
     inkscape:cy="24.089054"
     inkscape:window-width="1366"
     inkscape:window-height="700"
     inkscape:window-x="0"
     inkscape:window-y="0"
     inkscape:window-maximized="1"
     inkscape:current-layer="svg28" />
  <linearGradient
     id="a"
     x2="1"
     gradientTransform="matrix(0 -32.5937 29.6469 0 25.0628 40.2224)"
     gradientUnits="userSpaceOnUse">
    <stop
       stop-color="#f69310"
       offset="0"
       id="stop19" />
    <stop
       stop-color="#f3ca71"
       offset="1"
       id="stop21" />
  </linearGradient>
  <path
     d="m 46.798001,11.379546 c 0,-2.1628202 -1.752528,-3.9143706 -3.914223,-3.9143706 H 5.116223 C 2.9555719,7.4651754 1.202,9.2167258 1.202,11.379546 v 25.245082 c 0,2.160733 1.7535719,3.914371 3.914223,3.914371 h 37.767555 c 2.161695,0 3.914223,-1.753638 3.914223,-3.914371 z"
     fill="#e49f34"
     id="path7"
     style="stroke-width:1.04381" />
  <path
     d="m 46.798001,15.115422 c 0,-1.038613 -0.412298,-2.033386 -1.146085,-2.768243 -0.73483,-0.733814 -1.729564,-1.146128 -2.768138,-1.146128 H 22.858613 c -0.964465,0 -1.894484,-0.355947 -2.61157,-0.999991 C 19.645819,9.6624421 18.90577,8.9996087 18.304545,8.4599474 17.586416,7.8169468 16.656396,7.461 15.691932,7.461 H 5.1172668 C 4.0786929,7.461 3.0839584,7.8733137 2.3491282,8.6071278 1.6153419,9.3409418 1.2030438,10.336758 1.2030438,11.375371 v 25.249257 c 0,2.160733 1.7525281,3.914371 3.914223,3.914371 H 42.883778 c 2.161695,0 3.914223,-1.753638 3.914223,-3.914371 z"
     fill="url(#a)"
     id="path9"
     style="fill:url(#a-3);stroke-width:1.04381" />
</svg>
