<?xml version="1.0" encoding="UTF-8" standalone="no"?>
<svg
   inkscape:version="1.3.2 (091e20ef0f, 2023-11-25)"
   sodipodi:docname="folder-development.svg"
   id="svg14"
   version="1.1"
   viewBox="0 0 64 64"
   xml:space="preserve"
   xmlns:inkscape="http://www.inkscape.org/namespaces/inkscape"
   xmlns:sodipodi="http://sodipodi.sourceforge.net/DTD/sodipodi-0.dtd"
   xmlns:xlink="http://www.w3.org/1999/xlink"
   xmlns="http://www.w3.org/2000/svg"
   xmlns:svg="http://www.w3.org/2000/svg"
   xmlns:rdf="http://www.w3.org/1999/02/22-rdf-syntax-ns#"
   xmlns:cc="http://creativecommons.org/ns#"
   xmlns:dc="http://purl.org/dc/elements/1.1/"><metadata
     id="metadata18"><rdf:RDF><cc:Work
         rdf:about=""><dc:format>image/svg+xml</dc:format><dc:type
           rdf:resource="http://purl.org/dc/dcmitype/StillImage" /></cc:Work></rdf:RDF></metadata><sodipodi:namedview
     inkscape:current-layer="svg14"
     inkscape:window-maximized="1"
     inkscape:window-y="0"
     inkscape:window-x="0"
     inkscape:cy="24.861334"
     inkscape:cx="16.285975"
     inkscape:zoom="6.9384853"
     showgrid="true"
     id="namedview16"
     inkscape:window-height="699"
     inkscape:window-width="1366"
     inkscape:pageshadow="2"
     inkscape:pageopacity="0"
     guidetolerance="10"
     gridtolerance="10"
     objecttolerance="10"
     borderopacity="1"
     bordercolor="#666666"
     pagecolor="#ffffff"
     inkscape:document-rotation="0"
     inkscape:showpageshadow="2"
     inkscape:pagecheckerboard="0"
     inkscape:deskcolor="#d1d1d1"><inkscape:grid
       type="xygrid"
       id="grid835"
       originx="0"
       originy="0"
       spacingy="1"
       spacingx="1"
       units="px"
       visible="true" /></sodipodi:namedview><defs
     id="defs3051"><style
       id="current-color-scheme"
       type="text/css">
      .ColorScheme-Text {
        color:#31363b;
      }
      .ColorScheme-Background {
        color:#eff0f1;
      }
      .ColorScheme-Highlight {
        color:#3daee9;
      }
      .ColorScheme-ViewText {
        color:#31363b;
      }
      .ColorScheme-ViewBackground {
        color:#fcfcfc;
      }
      .ColorScheme-ViewHover {
        color:#93cee9;
      }
      .ColorScheme-ViewFocus{
        color:#3daee9;
      }
      .ColorScheme-ButtonText {
        color:#31363b;
      }
      .ColorScheme-ButtonBackground {
        color:#eff0f1;
      }
      .ColorScheme-ButtonHover {
        color:#93cee9;
      }
      .ColorScheme-ButtonFocus{
        color:#3daee9;
      }
      </style><style
       type="text/css"
       id="current-color-scheme-6">
      .ColorScheme-Text {
        color:#31363b;
      }
      .ColorScheme-Background {
        color:#eff0f1;
      }
      .ColorScheme-Highlight {
        color:#3daee9;
      }
      .ColorScheme-ViewText {
        color:#31363b;
      }
      .ColorScheme-ViewBackground {
        color:#fcfcfc;
      }
      .ColorScheme-ViewHover {
        color:#93cee9;
      }
      .ColorScheme-ViewFocus{
        color:#3daee9;
      }
      .ColorScheme-ButtonText {
        color:#31363b;
      }
      .ColorScheme-ButtonBackground {
        color:#eff0f1;
      }
      .ColorScheme-ButtonHover {
        color:#93cee9;
      }
      .ColorScheme-ButtonFocus{
        color:#3daee9;
      }
      </style><linearGradient
       inkscape:collect="always"
       xlink:href="#linearGradient1"
       id="linearGradient2"
       x1="35"
       y1="65.000031"
       x2="35"
       y2="3.3709566e-05"
       gradientUnits="userSpaceOnUse"
       gradientTransform="translate(0,-3.3699567e-5)" /><linearGradient
       id="linearGradient1"
       inkscape:collect="always"><stop
         style="stop-color:#000000;stop-opacity:0.45"
         offset="0"
         id="stop1" /><stop
         style="stop-color:#f9f9f9;stop-opacity:0;"
         offset="1"
         id="stop2" /></linearGradient></defs><path
     id="path4"
     class="ColorScheme-Highlight"
     d="M 9,6 C 6,6 4,8 4,11 v 9 0 C 3.3790248,19.99963 3,20.390263 3,21 H 3.00195 C 3.0019031,21.004 3,21.008019 3,21.011719 V 53 c 0,3 2,5 5,5 v 0 h 48 v 0 c 3,0 5,-2 5,-5 V 21.011719 21 17 c 0,-0.710874 -0.46875,-1 -1,-1 l -0.007,-0.0089 v 0 L 60,16 c 0,-3 -1,-6 -5,-6 H 32 C 32,8 31,6 28,6 Z"
     style="fill:currentColor;fill-opacity:1;stroke:none"
     sodipodi:nodetypes="ccccccsccccccccccccccccc" /><path
     id="path6"
     d="M 9,6 C 6,6 4,8 4,11 v 9 h 18 l 4,-4 h 34 l -0.007,-0.0089 L 60,16 v 0 c 0,-4.244895 -2,-6 -5,-6 H 32 C 32,8 31,6 28,6 Z"
     style="fill-opacity:0.33;fill-rule:evenodd"
     sodipodi:nodetypes="ccccccscccccc" /><path
     id="path8"
     d="m 28,6 c 3,0 4,2 4,5 v 0 H 55 V 10 H 32 v 0 C 32,8 30.407336,6.0814742 28,6 Z m -2,10 -4,4 H 4 l -1,1 h 20 z"
     style="opacity:0.01;fill:#ffffff;fill-opacity:0.2;fill-rule:evenodd"
     sodipodi:nodetypes="cccccccccccccc" /><path
     id="path10"
     class="ColorScheme-Text"
     d="m 26,16 -6,3 H 4 v 1 H 22 Z M 5.1,57 c 0,0.219986 1.1655165,1 3,1 v 0 h 48 v 0 c 1.636205,0 2.9,-0.777203 3,-1 v 0 z"
     style="fill-opacity:0.2;fill-rule:evenodd"
     sodipodi:nodetypes="cccccccccccccc" /><path
     style="color:#3daee9;fill:url(#linearGradient2);fill-opacity:1;stroke:none"
     d="M 9.0000003,6 C 6.0000003,6 4,8 4.008,11.197014 L 4,19.999966 c -0.525519,0 -1,0.363715 -1,1 l 0.008,0.197048 H 3.01 c -5e-5,0.004 -0.002,0.008 -0.002,0.01172 L 3,52.999966 c 0,3 2,5 5.0000003,5 v 0 H 55.999996 v 0 c 3,0 5,-2 5,-5 l 0.008,-31.791232 v -0.01172 l -0.008,-4.197048 c 0,-0.484427 -0.41643,-1 -1,-1 v 0 0 l 0.008,-0.802952 c -0.008,-3.197048 -2.008,-5.1970477 -5.008,-5.1970477 h -23 C 31.999996,7.999966 29.999995,5.999966 27.999995,6 Z"
     class="ColorScheme-Highlight"
     id="path1"
     sodipodi:nodetypes="ccccccsccccccccccccccccc" /><path
     id="path12"
     class="ColorScheme-Background"
     d="M 22 27 L 22 32 L 22 45.75 L 22 47 L 42 47 L 42 45.75 L 42 39.5 L 42 32 L 42 27 L 22 27 z M 23 32 L 41 32 L 41 46 C 35.08178 45.9387 28.91614 45.87139 23 46 L 23 32 z M 30 36 L 30 42 L 35 39 L 30 36 z "
     style="fill:#ffffff;fill-opacity:1;stroke:none" /></svg>
